<svg width="631" height="162" viewBox="0 0 631 162" fill="none" xmlns="http://www.w3.org/2000/svg">
<path d="M543.54 107.56C540.14 104.57 536.08 103.7 531.68 104.31C528.89 104.7 526.34 105.85 523.86 107.12C518.8 109.71 513.76 112.34 508.72 114.95C507.87 115.25 507.44 115.14 507.92 114.14C513.02 109.05 518.12 103.97 523.22 98.8801C525.07 97.2001 526.91 95.5101 528.77 93.8401C530.14 92.6001 529.89 91.6401 528.33 90.8501C525 87.8801 521.37 88.0101 517.7 90.0001C513.77 92.1301 510.49 95.1401 507.19 98.1101C506.88 98.3601 506.58 98.3701 506.34 98.0401C506.2 97.8401 506.27 97.6201 506.46 97.4201C507.44 95.4801 508.41 93.5401 509.39 91.5901C510.16 90.9501 510.4 89.9801 510.91 89.1701C511.92 87.6001 511 86.9601 509.65 86.6901C506.19 86.0001 502.94 86.4301 500.12 88.7601C498.35 90.2301 496.81 91.9201 495.51 93.8101C492.37 98.3801 489.82 103.27 487.55 108.31C486.05 110.79 484.55 113.27 483.07 115.76C482.54 116.64 481.9 116.76 480.94 116.42C480.02 116.09 479.42 115.67 479.58 114.63C479.69 113.91 479.86 113.21 480 112.49C481.2 106.44 482.41 100.38 483.59 94.3301C483.96 92.4201 483.56 91.9201 481.73 91.7001C480.23 91.5201 478.81 91.8701 477.52 92.5601C474.67 94.0801 473.06 96.5801 472.34 99.6701C471.48 103.32 470.63 106.98 469.87 110.65C469.51 112.4 468.67 112.85 466.86 112.73C458.06 112.16 449.77 108.87 440.1 108.32C446.62 104 452.57 100.59 458.66 97.4101C461.13 96.1201 463.61 94.8401 465.97 93.3801C471.4 90.0101 473.22 84.8101 472.86 78.7301C472.58 74.1001 472.03 73.8801 468.02 75.9301C459.08 80.5101 450.28 85.3701 440.93 89.1001C439.47 89.6801 438.05 90.3101 436.38 90.0701C430.58 89.2201 424.77 89.4601 418.98 90.1701C411.31 91.1101 404.04 93.2201 397.76 97.9501C395.83 99.4001 393.89 100.88 392.95 103.24C390.24 107.95 385.77 117.83 385.77 117.83L384.37 120.69C384.19 120.84 381.25 126.91 379.92 129.2C378.97 130.83 379.54 131.59 381.08 132.18C382.32 132.66 383.49 133.3 384.71 133.83C408.19 144.07 432.88 147.95 458.33 147.75C459.44 147.74 460.46 147.43 461.52 147.12C474.16 143.4 486.77 139.52 499.49 136.11C507.18 134.05 514.25 131.11 520.72 126.36C528.04 120.99 535.76 116.18 543.28 111.08C545.32 109.7 545.37 109.16 543.54 107.56ZM511.19 96.7701C512.91 95.4401 514.55 94.0001 516.28 92.6901C519.75 90.0701 523.4 89.2001 527.33 91.7201C527.64 92.7001 526.9 93.1701 526.36 93.7701C525.02 95.2201 523.35 96.3601 522.25 98.0401C515.59 103.83 509.46 110.18 503.22 116.39C500.7 118.9 497.75 120.1 493.85 121.41C495.53 118.21 497.1 115.69 498.23 112.97C501 106.3 505.55 101.12 511.19 96.7701ZM495.6 123.66C492.94 126.29 490.28 128.91 487.64 131.56C486.66 132.54 485.93 132.63 485.08 131.35C484.09 129.86 482.91 128.5 481.65 126.87C486.43 125.46 490.98 124.12 495.53 122.78C495.76 122.32 496.1 123.34 495.6 123.66ZM491.96 121.51C490.23 121.23 489.22 120.24 487.6 119.35C491.11 116.03 493.86 112.45 497.63 109.91C497.64 109.86 497.66 109.82 497.68 109.77L497.74 109.83C497.7 109.85 497.67 109.88 497.63 109.91C496.32 114.03 493.72 117.49 491.96 121.51ZM484.65 116.34C485.93 114.02 487.52 111.86 488.42 109.34C490.98 105.7 492.69 101.58 494.98 97.7901C496.54 95.2101 498.11 92.6601 500.42 90.6701C502.39 88.9801 504.59 87.9201 507.29 88.0101C508.93 88.0601 508.96 88.9601 508.68 90.1501C506.76 93.6401 504.83 97.1301 502.94 100.63C502.19 102.02 501.46 103.4 500.31 104.51C495.97 108.72 491.64 112.96 487.31 117.18C487.05 117.43 486.78 117.67 486.52 117.93C485.85 118.63 485.23 118.28 484.6 117.85C483.8 117.31 484.4 116.8 484.65 116.34ZM489.73 122.51C486.8 124.05 483.92 124.41 481.13 124.97C479.25 125.35 477.99 123.89 478.12 121.92C478.14 121.68 478.18 121.44 478.24 121.2C478.49 120.15 478.75 119.1 479.11 117.65C483.01 118.72 486.21 120.57 489.73 122.51ZM472 108.52C472.7 105.58 473.26 102.6 474.06 99.6901C475.2 95.5201 477.29 93.8401 481.97 93.4701C481.03 98.3401 480.17 102.83 479.31 107.32C478.92 109.34 478.44 111.34 478.14 113.37C477.92 114.87 477.2 115.05 475.88 114.77C470.77 113.66 470.78 113.69 472 108.52ZM475.1 116.18C477.5 116.91 477.53 116.95 476.94 119.43C476.78 120.08 476.93 120.89 476.1 121.44C473.15 119.51 465.84 115.15 465.26 114.5C466.55 113.82 473.03 115.55 475.1 116.18ZM455.28 113.33C456.36 113.36 457.5 113.36 458.5 113.72C465.39 116.17 471.67 119.67 476.83 125.16C461.81 125.26 447.75 121 432.95 116.51C436.04 114.9 438.69 114.79 441.2 114.37C445.85 113.6 450.55 113.19 455.28 113.33ZM442.2 110.13C444.4 110.7 450.37 110.9 450.48 111.72C450.52 112.01 438.53 113.27 432.79 114.29C435.58 111.05 438.16 109.09 442.2 110.13ZM470.59 76.6601C472.56 84.4301 468.57 91.7601 461.29 94.2101C460.39 94.5101 459.66 94.2401 458.84 94.0401C453.58 92.7101 448.3 91.5301 442.91 90.7201C443.96 89.8101 466.48 78.3701 470.59 76.6601ZM446.4 92.9701C450.03 93.8501 453.72 94.5101 457.52 95.3001C448.07 103.65 410.95 108.52 398.53 102.88C408.89 100.34 418.85 98.3501 428.53 95.2601C429.68 94.8901 430.91 94.6701 431.97 94.1401C436.64 91.7801 441.44 91.7601 446.4 92.9701ZM432.62 91.9001C421.28 96.3101 409.39 98.6901 397.2 101.37C401.41 94.8401 418.56 89.8501 432.62 91.9001ZM385.53 121.44C385.71 121.3 391.57 109.75 393.69 104.71C394.9 104.35 396.1 104.6 397.28 104.86C411.36 107.97 425.37 107.6 439.34 104.17C440.04 104 444.81 102.39 444.95 102.72C445.31 103.62 437.12 108.34 433.43 108.66C422.5 109.61 411.67 111.4 401.22 114.93C395.97 116.71 390.77 118.64 386.4 122.22C385.74 122.37 385.43 122.13 385.53 121.44ZM383.5 130.93C381.46 130.43 381.37 130.07 382.55 128.24C384.23 125.64 386.61 123.78 389.18 122.16C394.23 118.97 399.78 116.96 405.49 115.33C414.3 112.8 427.63 110.45 434.1 110.5C430.33 113.58 428.09 117.06 425.2 119.91C413.43 131.51 399.39 134.84 383.5 130.93ZM461.13 145.06C459.81 145.68 458.52 146.19 456.99 146.2C435.38 146.29 414.33 143.06 393.93 135.85C392.83 135.46 391.6 135.24 390.24 133.86C396.8 134.33 402.8 133.96 408.63 132.08C416.06 129.69 422.47 125.68 427.54 119.75C429.12 117.9 430.44 117.53 432.79 118.26C443.3 121.51 453.89 124.5 464.8 126.15C468.62 126.73 472.47 127.47 476.35 127.1C478.67 126.88 480.31 127.52 481.58 129.46C482.5 130.86 483.59 132.15 484.5 133.35C484.15 134.62 483.16 134.69 482.45 135.03C475.37 138.4 468.24 141.71 461.13 145.06ZM540.19 111.15C530.97 117.38 521.72 123.56 512.5 129.78C511.08 130.74 509.59 131.45 507.94 131.93C497.61 134.91 487.3 137.93 476.98 140.93C476.41 141.1 471.66 142.57 470.87 142.49C470.86 142.5 470.86 142.51 470.85 142.53L470.82 142.49C470.84 142.49 470.85 142.49 470.87 142.5C471.31 141.59 475.58 140.1 475.8 140.02C484.56 137.06 491.15 131.09 497.24 124.46C499.98 121.47 503.23 119.36 506.92 117.65C512.83 114.9 518.55 111.73 524.34 108.72C527.93 106.85 531.63 105.53 535.79 105.97C538.4 106.25 540.71 107.06 542.59 109.11C542.07 110.2 541.03 110.59 540.19 111.15Z" fill="white"/>
<path d="M595.71 46.0601C592.07 31.4401 577.95 21.2201 562.88 22.7301C547.86 24.2401 535.84 36.7001 535.09 51.8101C534.7 59.6901 537.44 67.5701 542.6 73.5201C545.23 76.5501 548.37 78.7301 551.8 80.7401C555.38 82.8301 558.31 85.9001 560.34 89.5101C561.34 91.3001 562.11 93.2001 562.63 95.1801C563.08 96.8501 563.97 98.2501 565.76 98.6801C567.17 99.0201 568.83 98.3801 570.2 98.0501C574.76 96.9401 579.32 95.8401 583.88 94.7301C585.89 94.2401 587.79 93.3501 588.05 90.9901C588.14 90.1401 587.9 89.3601 587.74 88.5301C587.5 87.3301 587.36 86.1101 587.3 84.8801C587.2 82.6301 587.41 80.3801 587.94 78.2001C588.47 76.0001 589.31 73.9001 590.44 71.9401C591.6 69.9401 592.92 68.0801 593.87 65.9601C595.7 61.8501 596.66 57.3801 596.59 52.8801C596.56 50.5801 596.24 48.2901 595.71 46.0601C595.42 44.8101 593.49 45.3401 593.78 46.5901C594.8 50.9401 594.87 55.4601 593.85 59.8201C593.36 61.9201 592.65 63.9701 591.7 65.9001C590.78 67.7901 589.53 69.4701 588.51 71.3001C586.51 74.8801 585.42 78.9301 585.29 83.0301C585.23 85.0501 585.41 87.0901 585.81 89.0701C586.11 90.5701 586.23 92.0001 584.45 92.5401C580.89 93.6201 577.17 94.3101 573.55 95.1901C571.68 95.6401 569.81 96.1001 567.93 96.5501C567.54 96.6501 567.11 96.7901 566.7 96.7901C564.59 96.8001 564.47 94.1501 563.94 92.6701C562.71 89.2201 560.79 86.0201 558.27 83.3601C557.01 82.0301 555.6 80.8501 554.08 79.8201C552.55 78.7901 550.88 77.9901 549.36 76.9301C543.1 72.5901 538.84 65.8201 537.49 58.3401C534.93 44.2301 543.68 30.0201 557.38 25.8401C571.08 21.6701 586.11 28.4301 592.04 41.4701C592.79 43.1101 593.35 44.8301 593.78 46.5801C594.1 47.8401 596.02 47.3101 595.71 46.0601Z" fill="white"/>
<path d="M590.07 101.35C589.41 99.1802 587.45 98.0602 585.25 98.4602C585.43 99.1002 585.6 99.7502 585.78 100.39C587.64 99.8202 588.94 98.1702 588.77 96.1702C588.61 94.3202 587.11 92.7902 585.26 92.5902C583.69 92.4202 581.84 93.1602 580.34 93.5302C576.18 94.5402 571.91 95.3702 567.8 96.5702C565.74 97.1702 564.36 99.2402 564.91 101.39C565.47 103.58 567.6 104.67 569.73 104.28C569.55 103.64 569.38 102.99 569.2 102.35C567.14 102.98 565.76 105 566.31 107.17C566.87 109.36 569 110.45 571.13 110.06C570.95 109.42 570.78 108.77 570.6 108.13C568.74 108.7 567.44 110.35 567.61 112.35C567.77 114.2 569.27 115.73 571.12 115.93C572.69 116.1 574.54 115.36 576.04 114.99C580.2 113.98 584.47 113.15 588.58 111.95C590.64 111.35 592.02 109.28 591.47 107.13C590.91 104.94 588.78 103.85 586.65 104.24C586.83 104.88 587 105.53 587.18 106.17C589.35 105.52 590.47 103.56 590.07 101.35C589.84 100.09 587.91 100.62 588.14 101.88C588.34 103 587.71 103.92 586.65 104.24C585.4 104.62 585.93 106.4 587.18 106.17C589.02 105.83 590.39 108.03 589.05 109.46C588.65 109.88 588.14 110 587.61 110.14C586.21 110.5 584.8 110.82 583.39 111.17C579.86 112.03 576.32 112.89 572.79 113.74C572.41 113.83 571.99 113.98 571.59 113.98C569.23 113.99 568.99 110.73 571.13 110.08C572.38 109.7 571.85 107.92 570.6 108.15C568.07 108.61 567.3 105.03 569.73 104.29C570.98 103.91 570.45 102.13 569.2 102.36C567.36 102.7 565.99 100.5 567.33 99.0702C567.73 98.6502 568.24 98.5302 568.77 98.3902C570.17 98.0302 571.58 97.7102 572.99 97.3602C576.52 96.5002 580.06 95.6402 583.59 94.7902C583.97 94.7002 584.39 94.5502 584.79 94.5502C587.15 94.5402 587.39 97.8002 585.25 98.4502C584 98.8302 584.53 100.61 585.78 100.38C586.9 100.18 587.82 100.81 588.14 101.87C588.52 103.11 590.45 102.59 590.07 101.35Z" fill="white"/>
<path d="M572.48 103.62C575.56 102.87 578.64 102.12 581.72 101.38C582.15 101.27 582.59 101.17 583.02 101.06C584.27 100.76 583.74 98.8302 582.49 99.1302C579.41 99.8802 576.33 100.63 573.25 101.37C572.82 101.48 572.38 101.58 571.95 101.69C570.7 102 571.23 103.93 572.48 103.62Z" fill="white"/>
<path d="M573.89 109.41C576.97 108.66 580.05 107.91 583.13 107.17C583.56 107.06 584 106.96 584.43 106.85C585.68 106.55 585.15 104.62 583.9 104.92C580.82 105.67 577.74 106.42 574.66 107.16C574.23 107.27 573.79 107.37 573.36 107.48C572.1 107.78 572.63 109.71 573.89 109.41Z" fill="white"/>
<path d="M583.83 113.93C584.02 114.77 583.88 115.62 583.41 116.38C582.98 117.07 582.28 117.57 581.44 117.77C580.64 117.96 579.79 117.82 579.08 117.4C578.32 116.95 577.82 116.25 577.6 115.38C577.28 114.13 575.35 114.66 575.67 115.91C576.22 118.04 578.01 119.55 580.17 119.82C582.25 120.07 584.41 118.89 585.34 117.01C585.9 115.87 586.03 114.63 585.75 113.4C585.63 112.87 585.02 112.56 584.52 112.7C583.98 112.85 583.71 113.41 583.83 113.93Z" fill="white"/>
<path d="M577.05 95.3301C574.94 86.6301 572.83 77.9301 570.71 69.2301C570.41 68.0001 570.11 66.7701 569.81 65.5301C569.51 64.2801 567.58 64.8101 567.88 66.0601C569.99 74.7601 572.1 83.4601 574.22 92.1601C574.52 93.3901 574.82 94.6201 575.12 95.8601C575.42 97.1101 577.35 96.5801 577.05 95.3301Z" fill="white"/>
<path d="M548.3 49.2C551.18 54.87 554.06 60.53 556.94 66.2C557.36 67.03 557.78 67.86 558.2 68.68C558.66 69.58 560.07 69.13 560.06 68.18C560.02 61.82 559.99 55.47 559.95 49.11C559.94 48.18 559.94 47.25 559.93 46.32C559.31 46.49 558.69 46.66 558.07 46.82C560.95 52.49 563.83 58.15 566.71 63.82C567.13 64.65 567.55 65.48 567.97 66.3C568.43 67.2 569.84 66.75 569.83 65.8C569.79 59.44 569.75 53.09 569.72 46.73C569.71 45.8 569.71 44.87 569.7 43.94C569.08 44.11 568.46 44.28 567.84 44.44C570.72 50.11 573.6 55.77 576.48 61.44C576.9 62.27 577.32 63.1 577.74 63.92C578.2 64.82 579.61 64.37 579.6 63.42C579.56 57.06 579.53 50.71 579.49 44.35C579.48 43.42 579.48 42.49 579.47 41.56C579.46 40.27 577.46 40.27 577.47 41.56C577.51 47.92 577.54 54.27 577.58 60.63C577.59 61.56 577.59 62.49 577.6 63.42C578.22 63.25 578.84 63.08 579.46 62.92C576.58 57.25 573.7 51.59 570.82 45.92C570.4 45.09 569.98 44.26 569.56 43.44C569.1 42.54 567.69 42.99 567.7 43.94C567.74 50.3 567.78 56.65 567.81 63.01C567.82 63.94 567.82 64.87 567.83 65.8C568.45 65.63 569.07 65.46 569.69 65.3C566.81 59.63 563.93 53.97 561.05 48.3C560.63 47.47 560.21 46.64 559.79 45.82C559.33 44.92 557.92 45.37 557.93 46.32C557.97 52.68 558 59.03 558.04 65.39C558.05 66.32 558.05 67.25 558.06 68.18C558.68 68.01 559.3 67.84 559.92 67.68C557.04 62.01 554.16 56.35 551.28 50.68C550.86 49.85 550.44 49.02 550.02 48.2C549.44 47.04 547.71 48.05 548.3 49.2Z" fill="white"/>
<path d="M388.2 66.98C395.79 68.03 401.51 61.5 404.19 55.13C407.37 47.58 407.79 37.84 403.49 30.62C401.82 27.81 399.28 25.4 396.07 24.51C392.96 23.65 389.68 24.37 386.98 26.05C379.99 30.42 376.8 39.51 376.59 47.39C376.4 54.98 379.48 65.51 388.2 66.98C389.46 67.19 390 65.27 388.73 65.05C382.07 63.93 379.17 56.47 378.68 50.5C378.08 43.17 380.22 34.84 385.65 29.62C387.72 27.63 390.4 26.11 393.34 26.12C396.25 26.14 398.8 27.71 400.6 29.93C405.22 35.63 405.39 44.27 403.51 51.04C401.75 57.36 396.51 66.13 388.73 65.05C387.47 64.87 386.93 66.8 388.2 66.98Z" fill="white"/>
<path d="M360.89 88.19C363.27 87.57 364.53 85.23 365.21 83.04C366.3 79.52 366.3 75.64 365.97 72.01C365.56 67.5 364.57 63.02 362.99 58.78C361.74 55.42 360.15 52.09 357.82 49.33C356.38 47.62 354.3 45.81 351.91 45.93C349.51 46.05 347.99 48.09 347.17 50.15C345.87 53.38 345.74 57.11 345.92 60.54C346.15 65.06 347.04 69.58 348.46 73.87C349.76 77.78 351.5 81.72 354.18 84.9C355.83 86.86 358.18 88.74 360.89 88.19C362.15 87.94 361.62 86.01 360.36 86.26C358.5 86.63 356.78 84.86 355.69 83.6C353.68 81.26 352.27 78.36 351.16 75.5C348.57 68.8 346.91 60.8 348.26 53.64C348.61 51.8 349.23 49.07 351.1 48.16C352.78 47.35 354.55 48.78 355.66 49.91C357.69 51.98 359.11 54.66 360.26 57.3C361.82 60.87 362.87 64.7 363.52 68.54C364.18 72.41 364.48 76.54 363.78 80.44C363.42 82.46 362.69 85.66 360.36 86.26C359.11 86.59 359.64 88.51 360.89 88.19Z" fill="white"/>
<path d="M356.46 116.51C358.07 115.42 357.56 113 357.18 111.42C356.37 107.99 354.85 104.7 353.29 101.56C351.22 97.39 348.83 93.36 346.19 89.52C344.16 86.57 341.98 83.63 339.4 81.14C338.23 80.01 336.28 78.08 334.45 78.54C332.57 79.01 332.77 81.42 333.02 82.88C333.57 86.1 334.98 89.22 336.36 92.15C338.34 96.35 340.66 100.39 343.22 104.26C345.51 107.73 348 111.22 351.01 114.12C352.27 115.34 354.51 117.53 356.46 116.51C357.6 115.91 356.59 114.19 355.45 114.78C355.49 114.76 355.43 114.79 355.27 114.75C354.97 114.68 354.7 114.52 354.44 114.36C353.57 113.83 352.82 113.12 352.1 112.4C349.92 110.23 348.05 107.76 346.29 105.25C342.09 99.25 338.18 92.64 335.82 85.67C335.29 84.11 334.53 82.08 334.94 80.46C334.96 80.37 334.92 80.47 334.9 80.46C335.05 80.48 335.26 80.53 335.48 80.62C336.27 80.97 336.95 81.59 337.58 82.17C342.54 86.72 346.28 92.87 349.52 98.7C351.43 102.13 353.22 105.68 354.49 109.4C354.91 110.63 355.32 111.9 355.48 113.19C355.53 113.57 355.58 114 355.52 114.37C355.48 114.61 355.32 114.84 355.43 114.76C354.39 115.5 355.39 117.24 356.46 116.51Z" fill="white"/>
<path d="M359.09 139.7C360.11 138.59 359.07 136.84 358.48 135.78C357.09 133.28 355.3 130.98 353.52 128.75C349.23 123.37 344.48 117.95 338.98 113.75C338.01 113.01 336.2 111.45 334.85 112.15C333.55 112.83 334.25 114.52 334.72 115.49C335.86 117.88 337.55 120.04 339.15 122.12C341.49 125.14 343.99 128.04 346.61 130.82C349.06 133.42 351.6 135.98 354.43 138.17C355.38 138.91 357.55 140.82 358.88 139.86C359.91 139.11 358.92 137.38 357.87 138.13C358.03 138.02 358.1 138.21 357.96 138.06C357.86 137.95 357.5 137.85 357.36 137.77C356.58 137.33 355.86 136.77 355.17 136.21C353.21 134.62 351.38 132.85 349.62 131.05C345.43 126.78 341.37 122.21 338.06 117.22C337.6 116.52 337.15 115.81 336.75 115.07C336.64 114.86 336.15 113.55 336.1 113.52C336.13 113.53 335.62 114.04 335.6 113.98C335.59 113.96 335.79 114.06 335.94 114.13C336.59 114.43 337.19 114.88 337.75 115.31C342.25 118.71 346.15 123.08 349.78 127.35C351.82 129.75 353.81 132.22 355.55 134.85C356.1 135.67 356.63 136.51 357.07 137.4C357.22 137.71 357.34 138 357.45 138.33C357.59 138.74 357.36 138.61 357.66 138.29C356.81 139.23 358.22 140.65 359.09 139.7Z" fill="white"/>
<path d="M428.56 65.5599C436.23 70.2799 446.2 69.7999 453.31 64.2199C460.37 58.6799 463.29 49.0099 460.46 40.4899C457.59 31.8699 449.38 25.8199 440.28 25.6899C431.26 25.5699 423.02 31.2499 419.8 39.6499C416.14 49.1999 420.03 60.1199 428.56 65.5599C429.65 66.2499 430.65 64.5199 429.57 63.8299C422.7 59.4499 419.09 51.1099 420.86 43.0999C422.62 35.1099 429.34 28.9099 437.46 27.8499C445.65 26.7799 453.8 31.1499 457.5 38.5199C461.16 45.8099 459.77 54.8599 454.16 60.7599C447.77 67.4699 437.42 68.6499 429.58 63.8299C428.47 63.1599 427.47 64.8899 428.56 65.5599Z" fill="white"/>
<path d="M141.63 76.1099C140.99 80.3299 136.38 82.2299 132.59 82.6099C127.96 83.0799 122.63 81.8399 119.26 78.4599C116.53 75.7199 116.24 71.8099 119.36 69.2399C122.92 66.3099 128.35 66.1099 132.62 67.1999C136.76 68.2699 142.12 71.3799 141.59 76.3599C141.45 77.6399 143.46 77.6299 143.59 76.3599C144.12 71.3399 139.58 67.6499 135.38 65.9899C130.31 63.9899 123.68 63.8999 119.01 67.0199C115.17 69.5799 113.79 74.2899 116.5 78.2399C119.55 82.6999 125.44 84.6599 130.64 84.6899C135.75 84.7199 142.67 82.4699 143.56 76.6299C143.75 75.3799 141.82 74.8399 141.63 76.1099Z" fill="white"/>
<path d="M159.94 62.34C159.26 63.44 157.47 63.35 156.36 63.27C154.13 63.1 151.91 62.36 149.87 61.47C146.01 59.79 141.91 57.29 139.38 53.83C138.79 53.02 137.84 51.67 138.19 50.59C138.55 49.48 140.16 49.41 141.11 49.41C145.63 49.45 150.26 51.83 153.89 54.33C155.68 55.56 157.43 57.01 158.74 58.76C159.4 59.64 160.51 61.2 159.94 62.34C159.36 63.49 161.09 64.5 161.67 63.35C163.42 59.89 159.3 56.04 156.93 54.12C152.73 50.71 147.21 47.77 141.71 47.43C140.06 47.33 138.07 47.53 136.92 48.86C135.89 50.04 136.04 51.67 136.62 53.02C138.52 57.45 143.54 60.62 147.68 62.64C150.43 63.98 153.44 65.08 156.52 65.27C158.4 65.39 160.6 65.08 161.67 63.34C162.34 62.25 160.61 61.25 159.94 62.34Z" fill="white"/>
<path d="M178.63 64.3299C178.9 64.1099 178.84 64.3199 178.65 64.1999C178.59 64.1699 178.27 64.0799 178.13 64.0299C177.53 63.7899 176.97 63.4299 176.44 63.0799C174.73 61.9599 173.18 60.5999 171.69 59.1999C168.34 56.0499 165.09 52.5199 162.72 48.5499C162.39 47.9999 162.07 47.4299 161.83 46.8399C161.73 46.5999 161.47 45.7399 161.54 45.7499C161.65 45.7599 161.32 45.9199 161.31 45.9799C161.31 45.9999 161.39 45.9899 161.54 46.0299C162.09 46.1899 162.58 46.4599 163.07 46.7499C166.83 48.9999 170.04 52.3899 172.89 55.6599C174.47 57.4699 175.98 59.3699 177.23 61.4199C177.64 62.0899 178.05 62.7799 178.32 63.5099C178.41 63.7399 178.49 64.0399 178.54 64.2399C178.6 64.5099 178.45 64.5199 178.63 64.3299C177.76 65.2699 179.17 66.6899 180.04 65.7399C181.01 64.6999 180.37 63.1499 179.85 62.0499C178.88 59.9799 177.46 58.1199 176.04 56.3399C174.13 53.9399 172.04 51.6799 169.81 49.5799C168.04 47.9199 166.16 46.2699 164.07 45.0199C163.07 44.4199 161.54 43.5499 160.37 44.2099C159.14 44.8999 159.53 46.4999 159.97 47.5499C160.78 49.5299 162.07 51.2999 163.36 52.9899C165.23 55.4299 167.29 57.7199 169.49 59.8699C171.43 61.7599 173.51 63.6299 175.82 65.0699C177.01 65.8099 178.75 66.7999 180.04 65.7499C181.04 64.9399 179.62 63.5299 178.63 64.3299Z" fill="white"/>
<path d="M133.52 101.69C134.87 106.66 133.11 112.09 128.86 115.12C124.67 118.11 118.98 118.16 114.72 115.29C110.45 112.4 108.42 106.94 109.74 101.96C111.07 96.9498 115.54 93.1699 120.74 92.7999C126.57 92.3799 131.85 96.1398 133.52 101.69C133.89 102.92 135.82 102.4 135.45 101.16C133.73 95.4499 128.75 91.3098 122.78 90.8098C116.8 90.3098 110.98 93.8298 108.57 99.3098C106.16 104.79 107.45 111.4 111.83 115.52C116.2 119.62 122.76 120.56 128.12 117.9C134.25 114.85 137.22 107.7 135.45 101.17C135.11 99.9198 133.18 100.45 133.52 101.69Z" fill="white"/>
<path d="M33.5399 73.7501C36.7899 81.9701 40.0299 90.2001 43.2799 98.4201C43.7399 99.5801 44.1999 100.74 44.6499 101.9C44.8299 102.36 45.3299 102.81 45.8799 102.6C54.0999 99.3501 62.3299 96.1101 70.5499 92.8601C71.7099 92.4001 72.8699 91.9401 74.0299 91.4901C74.7199 91.2201 75.1499 90.0401 74.2699 89.6601C69.8699 87.7501 65.4599 85.8401 61.0599 83.9301C53.9899 80.8601 46.9299 77.8001 39.8599 74.7301C38.2399 74.0301 36.6199 73.3201 34.9999 72.6201C33.8299 72.1101 32.8099 73.8401 33.9899 74.3501C38.3899 76.2601 42.7999 78.1701 47.1999 80.0801C54.2699 83.1501 61.3299 86.2101 68.3999 89.2801C70.0199 89.9801 71.6399 90.6901 73.2599 91.3901C73.3399 90.7801 73.4199 90.1701 73.4999 89.5601C65.2799 92.8101 57.0499 96.0501 48.8299 99.3001C47.6699 99.7601 46.5099 100.22 45.3499 100.67C45.7599 100.9 46.1699 101.14 46.5799 101.37C43.3299 93.1501 40.0899 84.9201 36.8399 76.7001C36.3799 75.5401 35.9199 74.3801 35.4699 73.2201C34.9999 72.0401 33.0599 72.5601 33.5399 73.7501Z" fill="white"/>
<path d="M16.2299 55.2601C18.8299 61.8401 21.4299 68.4201 24.0299 75.0001C28.1499 85.4401 32.2699 95.8701 36.3899 106.31C37.3399 108.7 38.2799 111.1 39.2299 113.49C39.4099 113.95 39.9099 114.4 40.4599 114.19C47.0399 111.59 53.6199 108.99 60.1999 106.39C70.6399 102.27 81.0699 98.1501 91.5099 94.0301C93.8999 93.0801 96.2999 92.1401 98.6899 91.1901C99.3799 90.9201 99.8099 89.7401 98.9299 89.3601C96.2299 88.1901 93.5299 87.0201 90.8299 85.8501C84.3899 83.0501 77.9399 80.2601 71.4999 77.4601C63.6699 74.0601 55.8299 70.6601 47.9999 67.2601C41.2499 64.3301 34.5099 61.4101 27.7599 58.4801C24.4599 57.0501 21.1899 55.5001 17.8399 54.1801C17.7899 54.1601 17.7399 54.1401 17.6999 54.1201C16.5299 53.6101 15.5099 55.3401 16.6899 55.8501C19.3899 57.0201 22.0899 58.1901 24.7899 59.3601C31.2299 62.1601 37.6799 64.9501 44.1199 67.7501C51.9499 71.1501 59.7899 74.5501 67.6199 77.9501C74.3699 80.8801 81.1099 83.8001 87.8599 86.7301C90.0999 87.7001 92.3399 88.6701 94.5799 89.6401C95.5699 90.0701 96.7199 90.8101 97.7799 91.0301C97.8299 91.0401 97.8799 91.0701 97.9199 91.0901C97.9999 90.4801 98.0799 89.8701 98.1599 89.2601C91.5799 91.8601 84.9999 94.4601 78.4199 97.0601C67.9799 101.18 57.5499 105.3 47.1099 109.42C44.7199 110.37 42.3199 111.31 39.9299 112.26C40.3399 112.49 40.7499 112.73 41.1599 112.96C38.5599 106.38 35.9599 99.8001 33.3599 93.2201C29.2399 82.7801 25.1199 72.3501 20.9999 61.9101C20.0499 59.5201 19.1099 57.1201 18.1599 54.7301C17.6899 53.5401 15.7599 54.0601 16.2299 55.2601Z" fill="white"/>
<path d="M255.87 36.2599C255.51 33.9199 258.11 32.9899 259.75 32.0499C261.38 31.1099 262.77 29.8499 263.53 28.0999C264.41 26.0799 263.88 21.6399 266.77 21.2999C268.55 21.0899 270.3 21.5899 272.06 21.5999C274.37 21.5999 276.28 20.4099 277.89 18.8499C279.33 17.4599 280.91 15.6499 282.95 17.0199C283.98 17.7099 284.74 18.7099 285.69 19.4899C286.5 20.1599 287.41 20.6899 288.4 21.0399C290.45 21.7599 292.49 21.3699 294.59 21.2699C295.63 21.2199 296.99 21.1199 297.7 22.0399C298.63 23.2599 298.63 25.1999 298.9 26.6399C299.26 28.5299 300.26 30.1699 301.83 31.2799C303.46 32.4299 307.47 33.3899 307.14 36.0199C307 37.1199 306.07 38.2299 305.66 39.2599C305.19 40.4299 304.89 41.6799 304.85 42.9499C304.81 44.1299 305 45.3299 305.37 46.4399C305.78 47.7099 306.61 48.7999 307.01 50.0499C307.81 52.5199 305.22 53.2999 303.52 54.2299C301.74 55.2099 300.23 56.6099 299.4 58.4899C298.96 59.4999 298.72 60.5599 298.61 61.6499C298.49 62.8099 298.42 63.8999 297.49 64.7299C295.55 66.4799 292.81 64.8399 290.53 65.0099C288.1 65.1899 286.14 66.4799 284.49 68.1899C283.6 69.1199 285.01 70.5299 285.9 69.5999C287.69 67.7399 289.75 66.6699 292.38 67.0799C294.59 67.4199 296.52 67.9599 298.48 66.4799C299.25 65.8999 299.83 65.1199 300.18 64.2199C300.6 63.1399 300.51 61.9999 300.73 60.8899C301.15 58.7699 302.39 57.1899 304.25 56.0999C306.07 55.0399 308.28 54.4099 308.99 52.1699C309.77 49.6999 307.81 47.7099 307.17 45.4799C306.77 44.0699 306.74 42.6099 307.11 41.1899C307.48 39.7399 308.37 38.5899 308.87 37.2099C309.7 34.9499 308.47 32.9999 306.66 31.6899C304.6 30.1999 301.98 29.7599 301.08 27.0899C300.47 25.2899 300.58 23.3199 299.74 21.5699C298.12 18.1999 294.14 19.5199 291.21 19.4799C289.99 19.4599 288.82 19.1699 287.78 18.5299C286.61 17.8099 285.77 16.6999 284.71 15.8299C283.21 14.6099 281.48 13.9999 279.65 14.8799C277.31 15.9999 276.03 18.5899 273.49 19.3699C271.52 19.9699 269.23 19.1699 267.19 19.2599C265.8 19.3199 264.46 19.6699 263.62 20.8499C262.49 22.4399 262.5 24.5099 262.03 26.3299C261.3 29.1399 259.02 29.9899 256.78 31.3799C254.77 32.6299 253.58 34.3699 253.95 36.7799C254.14 38.0599 256.06 37.5199 255.87 36.2599Z" fill="white"/>
<path d="M222.98 60.3101C229.37 56.4401 235.88 52.8501 242.75 49.9001C247.07 48.0501 251.49 46.4201 255.97 45.0201C258.19 44.3301 260.42 43.6901 262.67 43.1101C263.99 42.7701 266.33 41.6901 267.24 43.2801C267.97 44.5601 268.41 46.1201 268.97 47.4801C270.4 50.9301 271.82 54.3901 273.25 57.8401C277.04 67.0401 280.84 76.2301 284.63 85.4301C287.02 91.2201 289.5 96.9901 291.81 102.82C291.85 102.91 291.89 103 291.92 103.1C292.73 105.54 289.59 105.71 287.98 106.14C283.5 107.33 279.07 108.74 274.73 110.37C266.5 113.46 258.59 117.32 251.07 121.87C250.61 122.15 250.15 122.43 249.69 122.71C249.48 122.84 249.27 122.96 249.06 123.09C248.91 123.18 248.52 123.36 248.9 123.22C248.02 123.55 247.01 123.68 246.1 123.9C241.9 124.92 237.76 126.12 233.67 127.52C224.96 130.51 216.53 134.35 208.57 138.98C207.31 139.71 205.25 141.51 204.13 139.59C204.07 139.48 204.04 139.35 203.99 139.24C203.66 138.52 203.38 137.77 203.08 137.03C201.82 133.97 200.55 130.91 199.29 127.85C195.54 118.76 191.79 109.67 188.04 100.59C185.32 94.0001 182.6 87.4101 179.88 80.8301C179.72 80.4301 179.51 80.0301 179.39 79.6201C178.85 77.7501 181.41 76.8401 182.68 76.1001C184.75 74.8901 186.85 73.7401 188.98 72.6401C197.28 68.3501 206.01 64.9201 215 62.4001C217.57 61.6801 220.16 61.0601 222.76 60.4301C224.01 60.1301 223.48 58.2001 222.23 58.5001C214.6 60.3501 207.11 62.5301 199.83 65.4801C195.38 67.2801 191.03 69.3001 186.78 71.5401C184.66 72.6601 182.57 73.8401 180.51 75.0601C179.21 75.8401 177.83 76.5301 177.41 78.1301C176.92 79.9601 178.31 82.2201 178.98 83.8601C180.41 87.3301 181.85 90.8101 183.28 94.2801C187.22 103.82 191.15 113.35 195.09 122.89C197.45 128.6 199.73 134.36 202.17 140.04C203.21 142.46 205.66 143.03 207.85 141.74C212.05 139.27 216.31 136.95 220.73 134.89C229.1 130.98 237.86 127.97 246.84 125.79C247.77 125.56 248.84 125.45 249.71 125.05C250.56 124.66 251.35 124.05 252.15 123.57C255.92 121.29 259.8 119.17 263.77 117.25C268.2 115.1 272.75 113.2 277.38 111.54C279.63 110.73 281.91 109.99 284.2 109.3C286.57 108.59 289 108.08 291.36 107.36C293.52 106.7 294.58 104.55 293.81 102.44C293.58 101.8 293.29 101.18 293.03 100.55C291.76 97.4701 290.49 94.3901 289.22 91.3101C285.34 81.9201 281.47 72.5301 277.59 63.1401C274.87 56.5601 272.16 49.9801 269.44 43.4001C268.99 42.3101 268.48 41.3101 267.34 40.7701C265.87 40.0701 264.28 40.6701 262.81 41.0401C260.49 41.6301 258.18 42.2801 255.89 42.9801C246.74 45.8101 237.86 49.5801 229.47 54.2101C226.94 55.6101 224.46 57.1101 221.99 58.6101C220.87 59.2501 221.88 60.9801 222.98 60.3101Z" fill="white"/>
<path d="M223.36 64.2C225.98 70.55 228.6 76.9 231.22 83.25C235.38 93.33 239.54 103.4 243.69 113.48C244.65 115.8 245.61 118.12 246.56 120.45C247.04 121.62 248.98 121.11 248.49 119.92C245.87 113.57 243.25 107.22 240.63 100.87C236.47 90.79 232.31 80.72 228.16 70.64C227.2 68.32 226.24 66 225.29 63.67C224.81 62.5 222.87 63.01 223.36 64.2Z" fill="white"/>
<path d="M296.19 117.62C297.94 117.93 299.37 117.43 300.67 116.23C301.23 115.72 301.97 114.66 302.83 114.97C303.67 115.27 304.26 116.28 305 116.79C306.47 117.8 308 117.66 309.69 117.57C310.82 117.51 311.24 117.59 311.51 118.71C311.87 120.18 311.92 121.58 313.11 122.68C313.7 123.23 314.43 123.5 315.12 123.89C315.51 124.11 316.21 124.48 316.34 124.97C316.48 125.51 315.95 126.13 315.74 126.58C314.94 128.31 314.9 130.17 315.65 131.93C315.97 132.68 316.79 133.55 316.05 134.28C315.47 134.84 314.53 135.06 313.87 135.54C312.73 136.36 311.98 137.52 311.71 138.9C311.57 139.63 311.7 140.53 311.07 141.04C310.34 141.63 309.43 141.18 308.61 141.08C306.89 140.87 305.4 141.48 304.16 142.66C303.52 143.26 302.92 144.17 301.96 143.71C301.12 143.31 300.55 142.37 299.77 141.85C298.31 140.88 296.89 141.05 295.25 141.29C293.38 141.56 293.61 139.89 293.2 138.53C292.78 137.14 291.92 136.01 290.68 135.25C290.1 134.89 289.11 134.67 288.77 134.02C288.37 133.26 289.15 132.27 289.44 131.61C289.81 130.72 290 129.79 289.9 128.83C289.79 127.72 289.21 126.89 288.83 125.88C288.17 124.1 290.85 123.58 291.88 122.6C293.16 121.38 293.08 119.87 293.61 118.32C294.01 117.14 295.44 117.58 296.46 117.66C297.74 117.76 297.74 115.76 296.46 115.66C295.23 115.56 293.67 115.33 292.64 116.19C291.57 117.07 291.59 118.55 291.27 119.78C290.75 121.78 288.58 121.92 287.39 123.34C286.25 124.7 286.78 126.17 287.46 127.59C288.12 128.96 287.97 130.06 287.35 131.41C286.98 132.19 286.64 132.95 286.69 133.83C286.82 135.82 288.62 136.19 289.97 137.18C291.55 138.34 291.18 140.17 291.99 141.74C292.69 143.09 294.04 143.49 295.48 143.28C296.46 143.14 297.39 142.87 298.34 143.33C299.36 143.83 299.97 144.89 300.96 145.45C302.83 146.53 304.24 145.33 305.59 144.09C306.36 143.38 307.2 142.97 308.27 143.06C309.25 143.14 310.07 143.5 311.07 143.25C313 142.77 313.39 141.19 313.66 139.48C313.79 138.66 314.13 137.94 314.76 137.39C315.52 136.73 316.53 136.51 317.3 135.86C318.83 134.57 318.4 133.04 317.64 131.46C317.07 130.27 316.93 129.01 317.41 127.76C317.81 126.73 318.56 125.9 318.34 124.72C318.18 123.88 317.64 123.22 316.98 122.71C316.17 122.08 315.01 121.82 314.32 121.05C313.19 119.77 313.84 117.68 312.61 116.38C311.5 115.22 309.8 115.61 308.39 115.68C306.98 115.75 306.16 115.2 305.17 114.27C304.49 113.63 303.71 112.98 302.74 112.9C300.2 112.68 299.3 116.14 296.73 115.69C295.46 115.47 294.92 117.4 296.19 117.62Z" fill="white"/>
<path d="M521.89 13.8001C525.14 18.2701 528.39 22.7301 531.64 27.2001C532.1 27.8301 532.56 28.4701 533.02 29.1001C533.77 30.1301 535.51 29.1301 534.75 28.0901C531.5 23.6201 528.25 19.1601 525 14.6901C524.54 14.0601 524.08 13.4201 523.62 12.7901C522.86 11.7601 521.13 12.7601 521.89 13.8001Z" fill="white"/>
<path d="M500.17 31.3701C509.18 33.8901 518.19 36.4001 527.2 38.9201C528.48 39.2801 529.75 39.6301 531.03 39.9901C532.27 40.3401 532.8 38.4101 531.56 38.0601C522.55 35.5401 513.54 33.0301 504.53 30.5101C503.25 30.1501 501.98 29.8001 500.7 29.4401C499.46 29.1001 498.93 31.0201 500.17 31.3701Z" fill="white"/>
<path d="M510.89 56.6099C516.05 54.6499 521.21 52.6799 526.38 50.7199C527.11 50.4399 527.85 50.1599 528.58 49.8799C529.77 49.4299 529.25 47.4899 528.05 47.9499C522.89 49.9099 517.73 51.8799 512.56 53.8399C511.83 54.1199 511.09 54.3999 510.36 54.6799C509.17 55.1299 509.69 57.0699 510.89 56.6099Z" fill="white"/>
<path d="M530.59 59.1499C528.94 60.8799 527.3 62.6099 525.65 64.3499C525.41 64.5999 525.17 64.8499 524.94 65.0999C524.58 65.4799 524.54 66.1399 524.94 66.5099C525.33 66.8699 525.97 66.9199 526.35 66.5099C528 64.7799 529.64 63.0499 531.29 61.3099C531.53 61.0599 531.77 60.8099 532 60.5599C532.36 60.1799 532.4 59.5199 532 59.1499C531.61 58.7899 530.97 58.7399 530.59 59.1499Z" fill="white"/>
<path d="M606.82 73.1201C605.33 71.0701 603.83 69.0201 602.34 66.9701C602.13 66.6801 601.92 66.3901 601.7 66.1001C601.38 65.6601 600.83 65.4501 600.33 65.7401C599.9 65.9901 599.65 66.6701 599.97 67.1101C601.46 69.1601 602.96 71.2101 604.45 73.2601C604.66 73.5501 604.87 73.8401 605.09 74.1301C605.41 74.5701 605.96 74.7801 606.46 74.4901C606.89 74.2401 607.14 73.5601 606.82 73.1201Z" fill="white"/>
<path d="M619.13 59.51C614.63 58.25 610.13 57 605.63 55.74C604.99 55.56 604.34 55.38 603.7 55.2C602.46 54.85 601.93 56.78 603.17 57.13C607.67 58.39 612.17 59.64 616.67 60.9C617.31 61.08 617.96 61.26 618.6 61.44C619.84 61.79 620.37 59.86 619.13 59.51Z" fill="white"/>
<path d="M615.27 41.84C612.6 42.85 609.94 43.87 607.27 44.88C606.89 45.02 606.51 45.17 606.13 45.31C605.63 45.5 605.28 45.98 605.43 46.54C605.56 47.02 606.15 47.43 606.66 47.24C609.33 46.23 611.99 45.21 614.66 44.2C615.04 44.06 615.42 43.91 615.8 43.77C616.3 43.58 616.65 43.1 616.5 42.54C616.37 42.06 615.78 41.65 615.27 41.84Z" fill="white"/>
</svg>
