<svg height="18px" version="1.1" viewBox="0 0 22 18" width="22px" xmlns="http://www.w3.org/2000/svg"><g fill-rule="evenodd" id="Page-1" stroke="none"><g id="jump-to-top" transform="translate(-1.000000, 0.000000)"><path d="M12.006,5.987 L22.75,16.437 C22.9,16.587 23,16.837 23,17.087 C23,17.338 22.9,17.587 22.7,17.737 C22.35,18.087 21.75,18.087 21.35,17.737 L12.006,8.587 L2.611,17.737 C2.261,18.087 1.662,18.087 1.262,17.737 C0.912,17.387 0.912,16.787 1.262,16.437 L12.006,5.987 L12.006,5.987 Z M22.175,0 C22.631,0 23,0.37 23,0.825 L23,0.877 C23,1.332 22.63,1.702 22.175,1.702 L1.825,1.702 C1.369,1.702 1,1.332 1,0.877 L1,0.825 C1,0.369 1.37,0 1.825,0 L22.175,0 Z" id="Shape"></path></g></g></svg>